REM DIRINDEX 1\2\6,1\2\7,1\2\8,1\3\9,1\3\10,1\3\11,1\4\12,1\4\13,1\4\14,1\5\15,1\5\16,1\5\17,1\5\18
REM DIRNAME cjc019,folder01,folder02,folder03,folder04,folder05,folder06,folder07,folder08,folder09,folder10,folder11,folder12,folder13,folder14,folder15,folder16,folder17
TITLE ""
FILE "2Q_t_0108-0125.mp3" MP3
  TRACK 01 AUDIO
    TITLE "13:cjc019_2271"
    INDEX 01 00:00:00
  TRACK 02 AUDIO
    TITLE "0:"
    INDEX 01 00:00:66
  TRACK 03 AUDIO
    TITLE "14:cjc019_2272"
    INDEX 01 00:01:46
  TRACK 04 AUDIO
    TITLE "0:"
    INDEX 01 00:06:43
  TRACK 05 AUDIO
    TITLE "13:cjc019_2273"
    INDEX 01 00:07:17
  TRACK 06 AUDIO
    TITLE "0:"
    INDEX 01 00:08:13
  TRACK 07 AUDIO
    TITLE "14:cjc019_2274"
    INDEX 01 00:08:68
  TRACK 08 AUDIO
    TITLE "0:"
    INDEX 01 00:10:51
  TRACK 09 AUDIO
    TITLE "13:cjc019_2275"
    INDEX 01 00:11:19
  TRACK 10 AUDIO
    TITLE "0:"
    INDEX 01 00:12:24
  TRACK 11 AUDIO
    TITLE "14:cjc019_2276"
    INDEX 01 00:13:02
  TRACK 12 AUDIO
    TITLE "0:"
    INDEX 01 00:14:27
  TRACK 13 AUDIO
    TITLE "13:cjc019_2277"
    INDEX 01 00:15:01
  TRACK 14 AUDIO
    TITLE "0:"
    INDEX 01 00:16:24
  TRACK 15 AUDIO
    TITLE "14:cjc019_2278"
    INDEX 01 00:17:00
  TRACK 16 AUDIO
    TITLE "0:"
    INDEX 01 00:20:18
  TRACK 17 AUDIO
    TITLE "13:cjc019_2279"
    INDEX 01 00:20:67
  TRACK 18 AUDIO
    TITLE "0:"
    INDEX 01 00:22:30
  TRACK 19 AUDIO
    TITLE "14:cjc019_2280"
    INDEX 01 00:23:08
  TRACK 20 AUDIO
    TITLE "0:"
    INDEX 01 00:24:67
  TRACK 21 AUDIO
    TITLE "13:cjc019_2281"
    INDEX 01 00:25:39
  TRACK 22 AUDIO
    TITLE "0:"
    INDEX 01 00:26:64
  TRACK 23 AUDIO
    TITLE "14:cjc019_2282"
    INDEX 01 00:27:43
  TRACK 24 AUDIO
    TITLE "0:"
    INDEX 01 00:29:15
  TRACK 25 AUDIO
    TITLE "13:cjc019_2283"
    INDEX 01 00:29:64
  TRACK 26 AUDIO
    TITLE "0:"
    INDEX 01 00:30:67
  TRACK 27 AUDIO
    TITLE "14:cjc019_2284"
    INDEX 01 00:31:47
  TRACK 28 AUDIO
    TITLE "0:"
    INDEX 01 00:34:69
  TRACK 29 AUDIO
    TITLE "13:cjc019_2285"
    INDEX 01 00:35:47
  TRACK 30 AUDIO
    TITLE "0:"
    INDEX 01 00:37:03
  TRACK 31 AUDIO
    TITLE "14:cjc019_2286"
    INDEX 01 00:37:56
  TRACK 32 AUDIO
    TITLE "0:"
    INDEX 01 00:41:28
  TRACK 33 AUDIO
    TITLE "13:cjc019_2287"
    INDEX 01 00:42:04
  TRACK 34 AUDIO
    TITLE "0:"
    INDEX 01 00:43:25
  TRACK 35 AUDIO
    TITLE "14:cjc019_2288"
    INDEX 01 00:44:07
  TRACK 36 AUDIO
    TITLE "0:"
    INDEX 01 00:45:55
  TRACK 37 AUDIO
    TITLE "13:cjc019_2289"
    INDEX 01 00:46:27
  TRACK 38 AUDIO
    TITLE "0:"
    INDEX 01 00:47:46
  TRACK 39 AUDIO
    TITLE "14:cjc019_2290"
    INDEX 01 00:48:24
  TRACK 40 AUDIO
    TITLE "0:"
    INDEX 01 00:49:57
  TRACK 41 AUDIO
    TITLE "13:cjc019_2291"
    INDEX 01 00:50:29
  TRACK 42 AUDIO
    TITLE "0:"
    INDEX 01 00:51:30
  TRACK 43 AUDIO
    TITLE "14:cjc019_2292"
    INDEX 01 00:52:14
  TRACK 44 AUDIO
    TITLE "0:"
    INDEX 01 00:53:55
  TRACK 45 AUDIO
    TITLE "13:cjc019_2293"
    INDEX 01 00:54:30
  TRACK 46 AUDIO
    TITLE "0:"
    INDEX 01 00:55:51
  TRACK 47 AUDIO
    TITLE "14:cjc019_2294"
    INDEX 01 00:56:25
  TRACK 48 AUDIO
    TITLE "0:"
    INDEX 01 00:59:12
  TRACK 49 AUDIO
    TITLE "13:cjc019_2295"
    INDEX 01 00:59:63
  TRACK 50 AUDIO
    TITLE "0:"
    INDEX 01 01:01:07
  TRACK 51 AUDIO
    TITLE "14:cjc019_2296"
    INDEX 01 01:01:58
  TRACK 52 AUDIO
    TITLE "0:"
    INDEX 01 01:05:13
  TRACK 53 AUDIO
    TITLE "13:cjc019_2297"
    INDEX 01 01:05:62
  TRACK 54 AUDIO
    TITLE "0:"
    INDEX 01 01:06:73
  TRACK 55 AUDIO
    TITLE "14:cjc019_2298"
    INDEX 01 01:07:49
  TRACK 56 AUDIO
    TITLE "0:"
    INDEX 01 01:09:10
  TRACK 57 AUDIO
    TITLE "13:cjc019_2299"
    INDEX 01 01:09:59
  TRACK 58 AUDIO
    TITLE "0:"
    INDEX 01 01:11:02
  TRACK 59 AUDIO
    TITLE "14:cjc019_2300"
    INDEX 01 01:11:51
  TRACK 60 AUDIO
    TITLE "0:"
    INDEX 01 01:14:45
  TRACK 61 AUDIO
    TITLE "13:cjc019_2301"
    INDEX 01 01:15:21
  TRACK 62 AUDIO
    TITLE "0:"
    INDEX 01 01:16:34
  TRACK 63 AUDIO
    TITLE "14:cjc019_2302"
    INDEX 01 01:17:12
  TRACK 64 AUDIO
    TITLE "0:"
    INDEX 01 01:22:03
  TRACK 65 AUDIO
    TITLE "13:cjc019_2303"
    INDEX 01 01:22:52
  TRACK 66 AUDIO
    TITLE "0:"
    INDEX 01 01:24:00
  TRACK 67 AUDIO
    TITLE "14:cjc019_2304"
    INDEX 01 01:24:55
  TRACK 68 AUDIO
    TITLE "0:"
    INDEX 01 01:28:04
  TRACK 69 AUDIO
    TITLE "13:cjc019_2305"
    INDEX 01 01:28:55
  TRACK 70 AUDIO
    TITLE "0:"
    INDEX 01 01:29:58
  TRACK 71 AUDIO
    TITLE "14:cjc019_2306"
    INDEX 01 01:30:36
  TRACK 72 AUDIO
    TITLE "0:"
    INDEX 01 01:35:04
